<?xml version="1.0" standalone="no"?>
<!DOCTYPE svg PUBLIC "-//W3C//DTD SVG 20010904//EN"
 "http://www.w3.org/TR/2001/REC-SVG-20010904/DTD/svg10.dtd">
<svg version="1.0" xmlns="http://www.w3.org/2000/svg"
 width="512.000000pt" height="512.000000pt" viewBox="0 0 512.000000 512.000000"
 preserveAspectRatio="xMidYMid meet">
<metadata>
Created by potrace 1.14, written by Peter Selinger 2001-2017
</metadata>
<g transform="translate(0.000000,512.000000) scale(0.100000,-0.100000)"
fill="#000000" stroke="none">
<path d="M1340 4623 c-84 -29 -143 -81 -187 -165 l-28 -53 -3 -1082 -2 -1083
1520 0 1520 0 0 560 0 560 -417 1 c-230 0 -431 3 -448 5 -49 8 -117 46 -160
89 -43 43 -81 111 -89 160 -2 17 -5 254 -5 528 l-1 497 -827 -1 c-721 -1 -834
-3 -873 -16z"/>
<path d="M3200 4133 l1 -502 32 -43 c19 -25 47 -48 67 -55 25 -8 155 -12 448
-12 l413 -1 -128 148 c-70 81 -146 170 -168 197 -22 26 -47 55 -56 64 -8 9
-66 77 -129 151 -63 74 -117 137 -120 140 -3 3 -30 34 -60 70 -30 36 -61 72
-70 81 -8 9 -26 29 -39 45 -76 91 -130 153 -159 184 l-32 35 0 -502z"/>
<path d="M800 2000 l0 -400 80 0 80 0 0 160 0 160 1680 0 1680 0 0 -160 0
-160 80 0 80 0 0 400 0 400 -80 0 -80 0 0 -160 0 -160 -1680 0 -1680 0 0 160
0 160 -80 0 -80 0 0 -400z"/>
<path d="M1120 1600 l0 -160 80 0 80 0 0 160 0 160 -80 0 -80 0 0 -160z"/>
<path d="M4000 1600 l0 -160 80 0 80 0 0 160 0 160 -80 0 -80 0 0 -160z"/>
<path d="M1120 1120 l0 -160 80 0 80 0 0 160 0 160 -80 0 -80 0 0 -160z"/>
<path d="M4000 1120 l0 -160 80 0 80 0 0 160 0 160 -80 0 -80 0 0 -160z"/>
<path d="M1121 693 c2 -146 22 -204 92 -276 71 -71 122 -90 265 -95 l122 -4 0
80 0 80 -109 4 c-119 4 -141 12 -185 72 -18 23 -22 45 -24 137 l-4 109 -79 0
-80 0 2 -107z"/>
<path d="M4000 706 c0 -102 -9 -138 -43 -174 -36 -39 -82 -52 -183 -52 l-94 0
0 -80 0 -80 103 0 c136 0 206 23 274 88 78 76 96 125 101 270 l4 122 -81 0
-81 0 0 -94z"/>
<path d="M1760 400 l0 -80 160 0 160 0 0 80 0 80 -160 0 -160 0 0 -80z"/>
<path d="M2240 400 l0 -80 160 0 160 0 0 80 0 80 -160 0 -160 0 0 -80z"/>
<path d="M2720 400 l0 -80 160 0 160 0 0 80 0 80 -160 0 -160 0 0 -80z"/>
<path d="M3200 400 l0 -80 160 0 160 0 0 80 0 80 -160 0 -160 0 0 -80z"/>
</g>
</svg>
